<?xml version="1.0" encoding="UTF-8"?>
<!DOCTYPE svg PUBLIC "-//W3C//DTD SVG 1.1//EN" "http://www.w3.org/Graphics/SVG/1.1/DTD/svg11.dtd">
<!-- Creator: CorelDRAW 2018 (64 Bit Versão de avaliação) -->
<svg xmlns="http://www.w3.org/2000/svg" xml:space="preserve" width="20.32mm" height="7.4082mm" version="1.1" style="shape-rendering:geometricPrecision; text-rendering:geometricPrecision; image-rendering:optimizeQuality; fill-rule:evenodd; clip-rule:evenodd"
viewBox="0 0 44.08 16.07"
 xmlns:xlink="http://www.w3.org/1999/xlink">
 <defs>
  <style type="text/css">
   <![CDATA[
    .fil1 {fill:url(#id0)}
    .fil0 {fill:url(#id1)}
    .fil2 {fill:url(#id2)}
    .fil3 {fill:url(#id3)}
   ]]>
  </style>
  <linearGradient id="id0" gradientUnits="userSpaceOnUse" x1="-4.37" y1="2.95" x2="49.51" y2="2.72">
   <stop offset="0" style="stop-opacity:1; stop-color:#5CE0E5"/>
   <stop offset="1" style="stop-opacity:1; stop-color:#024CAF"/>
  </linearGradient>
  <linearGradient id="id1" gradientUnits="userSpaceOnUse" xlink:href="#id0" x1="-4.37" y1="2.95" x2="49.51" y2="2.72">
  </linearGradient>
  <linearGradient id="id2" gradientUnits="userSpaceOnUse" xlink:href="#id0" x1="-4.37" y1="2.95" x2="49.51" y2="2.72">
  </linearGradient>
  <linearGradient id="id3" gradientUnits="userSpaceOnUse" xlink:href="#id0" x1="-4.37" y1="2.95" x2="49.51" y2="2.72">
  </linearGradient>
 </defs>
 <g id="Camada_x0020_1">
  <metadata id="CorelCorpID_0Corel-Layer"/>
  <g id="_2463235494144">
   <path class="fil0" d="M40.23 0.32c0.66,0.04 1.26,0.13 1.8,0.27 0.54,0.14 0.99,0.3 1.36,0.46 0.36,0.16 0.59,0.29 0.69,0.39l-1.35 2.15c-0.15,-0.13 -0.43,-0.29 -0.84,-0.5 -0.41,-0.21 -0.87,-0.33 -1.39,-0.36 -0.39,-0.02 -0.73,0.01 -1,0.12 -0.28,0.1 -0.42,0.29 -0.44,0.54 -0.02,0.26 0.12,0.47 0.41,0.64 0.29,0.17 0.71,0.33 1.27,0.48 0.48,0.13 0.97,0.32 1.47,0.56 0.49,0.25 0.9,0.59 1.21,1.02 0.31,0.44 0.45,1.01 0.41,1.7 -0.04,0.71 -0.23,1.29 -0.56,1.74 -0.33,0.45 -0.75,0.78 -1.27,1.01 -0.51,0.23 -1.06,0.37 -1.65,0.44 -0.59,0.07 -1.15,0.09 -1.7,0.06 -0.77,-0.05 -1.43,-0.16 -1.99,-0.33 -0.56,-0.17 -1.01,-0.36 -1.35,-0.57 -0.34,-0.2 -0.58,-0.36 -0.71,-0.48l1.35 -2.41c0.2,0.19 0.54,0.42 1,0.67 0.47,0.26 0.97,0.4 1.51,0.43 0.52,0.03 0.93,-0.02 1.23,-0.16 0.3,-0.14 0.45,-0.34 0.47,-0.6 0.01,-0.21 -0.05,-0.38 -0.18,-0.51 -0.13,-0.13 -0.32,-0.25 -0.57,-0.36 -0.25,-0.11 -0.55,-0.21 -0.9,-0.3 -0.32,-0.09 -0.66,-0.21 -1.02,-0.37 -0.36,-0.16 -0.69,-0.38 -1.01,-0.64 -0.31,-0.26 -0.56,-0.59 -0.74,-0.97 -0.18,-0.38 -0.26,-0.84 -0.23,-1.37 0.04,-0.68 0.29,-1.23 0.75,-1.65 0.46,-0.42 1.04,-0.73 1.74,-0.91 0.7,-0.19 1.44,-0.25 2.21,-0.21z"/>
   <path class="fil1" d="M6.41 11.36c-1.25,0 -2.35,-0.24 -3.31,-0.73 -0.96,-0.48 -1.72,-1.15 -2.27,-2 -0.55,-0.85 -0.83,-1.82 -0.83,-2.92 0,-1.1 0.28,-2.08 0.83,-2.94 0.55,-0.86 1.31,-1.53 2.27,-2.03 0.96,-0.5 2.07,-0.75 3.31,-0.75 1.25,0 2.34,0.25 3.29,0.75 0.95,0.5 1.69,1.17 2.23,2.03 0.54,0.86 0.8,1.84 0.8,2.94 0,1.1 -0.27,2.07 -0.8,2.92 -0.54,0.85 -1.28,1.52 -2.23,2 -0.95,0.48 -2.05,0.73 -3.29,0.73zm0 -3.27c0.48,0 0.9,-0.1 1.25,-0.3 0.35,-0.2 0.62,-0.48 0.82,-0.85 0.19,-0.37 0.29,-0.78 0.29,-1.24 0,-0.47 -0.1,-0.89 -0.29,-1.25 -0.19,-0.37 -0.47,-0.65 -0.82,-0.86 -0.35,-0.21 -0.77,-0.31 -1.25,-0.31 -0.48,0 -0.9,0.1 -1.25,0.31 -0.36,0.21 -0.63,0.5 -0.83,0.86 -0.2,0.37 -0.3,0.78 -0.3,1.25 0,0.46 0.1,0.88 0.3,1.24 0.2,0.37 0.48,0.65 0.83,0.85 0.36,0.2 0.77,0.3 1.25,0.3z"/>
   <path class="fil2" d="M16.03 16.07l-3.65 0 0 -15.53 3.68 0 0 1.51c0.11,-0.23 0.33,-0.49 0.65,-0.77 0.32,-0.28 0.73,-0.52 1.22,-0.73 0.5,-0.21 1.06,-0.31 1.69,-0.31 0.97,0 1.8,0.25 2.49,0.74 0.69,0.49 1.22,1.15 1.59,1.98 0.37,0.82 0.56,1.74 0.56,2.75 0,1 -0.2,1.92 -0.59,2.74 -0.4,0.82 -0.95,1.48 -1.66,1.97 -0.71,0.49 -1.56,0.74 -2.53,0.74 -0.69,0 -1.28,-0.13 -1.77,-0.39 -0.49,-0.26 -0.87,-0.54 -1.15,-0.85 -0.28,-0.31 -0.46,-0.56 -0.53,-0.73l0 6.89zm4.64 -10.37c0,-0.47 -0.1,-0.89 -0.3,-1.26 -0.2,-0.37 -0.47,-0.67 -0.82,-0.88 -0.34,-0.21 -0.73,-0.32 -1.16,-0.32 -0.44,0 -0.84,0.1 -1.19,0.32 -0.35,0.21 -0.63,0.51 -0.83,0.88 -0.2,0.37 -0.3,0.8 -0.3,1.26 0,0.47 0.1,0.89 0.3,1.26 0.2,0.37 0.48,0.67 0.83,0.87 0.35,0.21 0.75,0.31 1.19,0.31 0.43,0 0.82,-0.1 1.16,-0.31 0.34,-0.21 0.61,-0.5 0.82,-0.87 0.2,-0.37 0.3,-0.79 0.3,-1.26z"/>
   <path class="fil3" d="M27.49 5.4c0,0.84 0.15,1.51 0.46,2.01 0.31,0.5 0.82,0.75 1.54,0.75 0.74,0 1.26,-0.25 1.56,-0.75 0.3,-0.5 0.45,-1.17 0.45,-2.01l0 -4.88 3.73 0 0 5.29c0,1.13 -0.22,2.11 -0.68,2.94 -0.45,0.83 -1.11,1.48 -1.96,1.93 -0.85,0.45 -1.89,0.68 -3.11,0.68 -1.21,0 -2.24,-0.23 -3.1,-0.68 -0.85,-0.45 -1.5,-1.1 -1.95,-1.93 -0.45,-0.83 -0.67,-1.81 -0.67,-2.94l0 -5.29 3.72 0 0 4.88z"/>
  </g>
 </g>
</svg>
